<?xml version="1.0" encoding="UTF-8" standalone="no"?>
<svg
   xmlns:dc="http://purl.org/dc/elements/1.1/"
   xmlns:cc="http://creativecommons.org/ns#"
   xmlns:rdf="http://www.w3.org/1999/02/22-rdf-syntax-ns#"
   xmlns:svg="http://www.w3.org/2000/svg"
   xmlns="http://www.w3.org/2000/svg"
   viewBox="0 0 793.70135 793.70135"
   height="793.70135"
   width="793.70135"
   xml:space="preserve"
   id="svg2"
   version="1.1"><metadata
     id="metadata8"><rdf:RDF><cc:Work
         rdf:about=""><dc:format>image/svg+xml</dc:format><dc:type
           rdf:resource="http://purl.org/dc/dcmitype/StillImage" /></cc:Work></rdf:RDF></metadata><defs
     id="defs6"><clipPath
       id="clipPath18"
       clipPathUnits="userSpaceOnUse"><path
         id="path16"
         d="M 0,595.276 H 595.276 V 0 H 0 Z" /></clipPath></defs><g
     transform="matrix(1.3333333,0,0,-1.3333333,0,793.70133)"
     id="g10"><g
       id="g12"><g
         clip-path="url(#clipPath18)"
         id="g14"><path
           id="path20"
           style="fill:#ffffff;fill-opacity:1;fill-rule:nonzero;stroke:none"
           d="m 233.013,321.542 h 17.69 v -57.728 h -17.69 z m 0.324,13.26 c 0,4.366 3.443,7.808 8.564,7.808 5.037,0 8.479,-3.442 8.479,-7.808 0,-4.281 -3.442,-7.724 -8.479,-7.724 -5.121,0 -8.564,3.443 -8.564,7.724" /><g
           transform="translate(297.7764,306.9553)"
           id="g22"><path
             id="path24"
             style="fill:#ffffff;fill-opacity:1;fill-rule:nonzero;stroke:none"
             d="m 0,0 c -6.621,0 -12.621,-5.069 -12.621,-14.276 0,-9.208 6,-14.278 12.621,-14.278 6.724,0 12.724,5.173 12.724,14.381 C 12.724,-4.966 6.724,0 0,0 m 5.276,15.415 c 14.276,0 25.449,-11.381 25.449,-29.588 0,-18.209 -11.276,-29.795 -25.449,-29.795 -8.483,0 -14.587,3.827 -17.795,8.897 v -8.07 h -17.69 v 76.557 h 17.69 V 6.414 c 3.208,5.173 9.519,9.001 17.795,9.001" /></g><path
           id="path26"
           style="fill:#ffffff;fill-opacity:1;fill-rule:nonzero;stroke:none"
           d="m 336.39,340.371 h 17.69 v -76.557 h -17.69 z" /><g
           transform="translate(379.8775,298.2649)"
           id="g28"><path
             id="path30"
             style="fill:#ffffff;fill-opacity:1;fill-rule:nonzero;stroke:none"
             d="m 0,0 h 22.139 c 0,6.311 -4.966,9.932 -10.863,9.932 C 5.482,9.932 1.034,6.414 0,0 m 11.483,-35.277 c -16.966,0 -29.174,11.38 -29.174,29.691 0,18.311 12.001,29.691 29.174,29.691 16.863,0 28.76,-11.173 28.76,-28.76 0,-1.656 -0.103,-3.414 -0.31,-5.173 H -0.104 c 0.621,-7.552 5.276,-11.069 10.966,-11.069 4.966,0 7.759,2.482 9.207,5.585 H 38.898 C 36.105,-26.588 25.863,-35.277 11.483,-35.277" /></g><g
           transform="translate(435.0601,262.9875)"
           id="g32"><path
             id="path34"
             style="fill:#ffffff;fill-opacity:1;fill-rule:nonzero;stroke:none"
             d="M 0,0 C -6.311,0 -10.552,4.241 -10.552,9.518 -10.552,15 -6.311,19.242 0,19.242 6.207,19.242 10.449,15 10.449,9.518 10.449,4.241 6.207,0 0,0" /></g><g
           transform="translate(168.8414,354.8718)"
           id="g36"><path
             id="path38"
             style="fill:#ffffff;fill-opacity:1;fill-rule:nonzero;stroke:none"
             d="M 0,0 C 0.01,-0.048 0.027,-0.095 0.038,-0.143 H 6.802 C 0.656,10.932 -7.163,21.118 -14.75,31.392 V 23.004 C -8.023,16.793 -2.179,9.982 0,0" /></g><g
           transform="translate(179.4551,354.7292)"
           id="g40"><path
             id="path42"
             style="fill:#ffffff;fill-opacity:1;fill-rule:nonzero;stroke:none"
             d="m 0,0 h 6.705 v -8.979 c 1.694,-0.059 3.67,0.487 5.901,1.633 9.235,4.744 14.245,12.787 17.888,22.207 1.918,4.959 5.408,9.284 7.706,14.125 0.836,1.759 1.697,3.513 2.563,5.266 H 25.348 C 25.069,33.678 24.789,33.104 24.512,32.529 20.587,24.379 17.639,15.583 12.625,8.184 7.765,1.012 3.416,2.064 -0.937,9.651 -4.64,16.108 -7.879,22.93 -12.331,28.83 c -1.438,1.905 -3.034,3.69 -4.701,5.422 h -6.881 c 3.489,-4.762 7.009,-9.496 11.046,-13.735 C -7.036,14.395 -2.141,8.248 0,0" /></g><g
           transform="translate(154.0909,373.2331)"
           id="g44"><path
             id="path46"
             style="fill:#ffffff;fill-opacity:1;fill-rule:nonzero;stroke:none"
             d="M 0,0 V -18.504 H 11.577 C 9.813,-10.241 5.217,-4.886 0,0" /></g><g
           transform="translate(184.4122,381.4211)"
           id="g48"><path
             id="path50"
             style="fill:#ffffff;fill-opacity:1;fill-rule:nonzero;stroke:none"
             d="M 0,0 C 5.134,0.084 7.158,3.317 8.069,7.56 H -7.883 C -7.627,3.224 -5.492,-0.091 0,0" /></g><g
           transform="translate(178.3526,371.05)"
           id="g52"><path
             id="path54"
             style="fill:#ffffff;fill-opacity:1;fill-rule:nonzero;stroke:none"
             d="m 0,0 c 1.176,-1.748 2.332,-3.515 3.547,-5.235 0.362,-0.514 0.705,-1.06 1.057,-1.603 0.554,-0.856 1.131,-1.702 1.845,-2.395 0.332,-0.323 0.718,-0.615 1.168,-0.726 0.674,-0.167 1.396,0.1 1.936,0.536 1.542,1.246 2.678,3.456 3.679,5.133 1.122,1.88 2.135,3.821 3.161,5.754 2.899,5.467 5.746,10.963 8.578,16.467 H 16.944 C 16.909,17.668 16.883,17.402 16.844,17.14 15.92,11.057 12.398,7.104 5.83,7.298 c -6.181,0.182 -9.125,4.218 -10.134,9.873 -0.045,0.251 -0.077,0.506 -0.114,0.76 h -8 C -9.775,14.25 -7.462,11.086 -6.965,10.355 -4.629,6.913 -2.322,3.451 0,0" /></g><g
           transform="translate(235.3975,360.5398)"
           id="g56"><path
             id="path58"
             style="fill:#ffffff;fill-opacity:1;fill-rule:nonzero;stroke:none"
             d="M 0,0 C -2.066,-1.941 -3.915,-3.786 -5.458,-5.811 H 12.313 V 14.747 C 8.504,9.529 4.631,4.351 0,0" /></g><g
           transform="translate(206.3653,310.1682)"
           id="g60"><path
             id="path62"
             style="fill:#ffffff;fill-opacity:1;fill-rule:nonzero;stroke:none"
             d="m 0,0 c 1.694,1.967 2.718,4.322 4.06,6.518 1.351,2.211 3.243,3.932 5.217,5.572 0,0 0,12.082 -10e-4,12.081 C -1.758,16.77 -6.197,13.287 -13.758,6.159 -15.45,4.563 -18.576,3.462 -20.206,2.655 V -15.75 c 4.389,3.869 9.537,6.722 14.191,10.24 C -3.856,-3.878 -1.77,-2.055 0,0" /></g><g
           transform="translate(196.8697,346.6023)"
           id="g64"><path
             id="path66"
             style="fill:#ffffff;fill-opacity:1;fill-rule:nonzero;stroke:none"
             d="m 0,0 c -4.156,-3.325 -7.632,-4.344 -10.71,-3.499 v -6.138 c 4.21,-1.379 8.383,-0.175 14.021,3.084 9.189,5.311 13.679,14.202 19.97,22.023 7.087,8.811 14.152,17.591 20.448,26.909 H 28.356 C 23.648,33.241 18.614,24.26 13.316,15.465 9.841,9.696 5.238,4.191 0,0" /></g><g
           transform="translate(195.3882,333.9382)"
           id="g68"><path
             id="path70"
             style="fill:#ffffff;fill-opacity:1;fill-rule:nonzero;stroke:none"
             d="M 0,0 C -3.11,-1 -6.268,-1.068 -9.229,-0.268 V -15.72 c 1.992,0.945 3.93,2.097 5.736,3.232 8.122,5.104 16.131,10.48 23.619,16.456 0.045,0.035 0.084,0.077 0.128,0.113 V 12.96 C 17.108,9.552 12.23,6.772 8.476,4.34 5.804,2.61 3.031,0.975 0,0" /></g><g
           transform="translate(244.6919,388.9812)"
           id="g72"><path
             id="path74"
             style="fill:#ffffff;fill-opacity:1;fill-rule:nonzero;stroke:none"
             d="m 0,0 c -4.682,-7.847 -8.758,-16.103 -16.06,-22.045 -2.328,-1.895 -4.861,-3.636 -6.51,-6.205 -1.165,-1.813 -1.833,-3.908 -2.501,-6.002 h 7.878 c 1.492,2.492 2.997,4.973 4.751,7.266 5.048,6.598 10.301,13.048 15.461,19.562 V 0 Z" /></g><g
           transform="translate(209.5874,287.5656)"
           id="g76"><path
             id="path78"
             style="fill:#ffffff;fill-opacity:1;fill-rule:nonzero;stroke:none"
             d="M 0,0 C 2.158,2.289 4.067,4.816 6.055,7.267 V 30.751 C 5.461,29.979 4.824,29.11 4.102,28.08 -2.765,18.279 -11.153,11.897 -20.253,4.882 -21.323,4.057 -22.379,3.212 -23.428,2.357 V -14.079 C -14.289,-12.126 -6.628,-7.032 0,0" /></g><g
           transform="translate(215.6421,275.5363)"
           id="g80"><path
             id="path82"
             style="fill:#ffffff;fill-opacity:1;fill-rule:nonzero;stroke:none"
             d="M 0,0 V 14.986 C -7.311,3.743 -17.258,-2.635 -29.482,-4.941 v -7.608 h 10.01 C -12.222,-9.977 -5.675,-6.006 0,0" /></g><g
           transform="translate(204.4834,262.9875)"
           id="g84"><path
             id="path86"
             style="fill:#ffffff;fill-opacity:1;fill-rule:nonzero;stroke:none"
             d="M 0,0 H 11.159 V 8.009 C 7.636,4.812 3.928,2.145 0,0" /></g></g></g></g></svg>